<svg width="17" height="18" viewBox="0 0 17 18" fill="none" xmlns="http://www.w3.org/2000/svg">
<g clip-path="url(#clip0_866_148)">
<path d="M8.18011 8.26437C9.27844 8.26437 10.2294 7.85716 11.0066 7.05373C11.7835 6.25044 12.1776 5.26756 12.1776 4.13205C12.1776 2.99694 11.7837 2.01393 11.0065 1.21037C10.2292 0.40721 9.27831 0 8.18011 0C7.08165 0 6.13084 0.40721 5.35375 1.21051C4.57667 2.0138 4.18262 2.99681 4.18262 4.13205C4.18262 5.26756 4.57667 6.25057 5.35375 7.05386C6.13109 7.85703 7.08203 8.26437 8.18011 8.26437V8.26437ZM6.04157 1.92139C6.63784 1.30501 7.3373 1.00539 8.18011 1.00539C9.02278 1.00539 9.72238 1.30501 10.3188 1.92139C10.915 2.5379 11.205 3.26109 11.205 4.13205C11.205 5.00328 10.915 5.72634 10.3188 6.34285C9.72238 6.95936 9.02278 7.25897 8.18011 7.25897C7.33756 7.25897 6.63809 6.95923 6.04157 6.34285C5.44518 5.72647 5.15521 5.00328 5.15521 4.13205C5.15521 3.26109 5.44518 2.5379 6.04157 1.92139Z" fill="black"/>
<path d="M15.1746 13.1925C15.1522 12.8582 15.1069 12.4935 15.0402 12.1084C14.9728 11.7204 14.8861 11.3537 14.7822 11.0185C14.6749 10.672 14.5291 10.3298 14.3487 10.0019C14.1616 9.66162 13.9418 9.36527 13.6952 9.12142C13.4372 8.86631 13.1214 8.66119 12.7563 8.51158C12.3923 8.36276 11.989 8.28736 11.5576 8.28736C11.3882 8.28736 11.2244 8.35922 10.9079 8.57219C10.7132 8.70347 10.4854 8.85531 10.2311 9.02325C10.0137 9.16644 9.7192 9.30061 9.35542 9.42208C9.00049 9.5408 8.64012 9.60101 8.28431 9.60101C7.92875 9.60101 7.56839 9.5408 7.21321 9.42208C6.8498 9.30074 6.55515 9.16658 6.33812 9.02338C6.08626 8.85701 5.85834 8.70518 5.66068 8.57206C5.3445 8.35909 5.18065 8.28723 5.01123 8.28723C4.5797 8.28723 4.17653 8.36276 3.81275 8.51171C3.44782 8.66106 3.13189 8.86617 2.87371 9.12155C2.62705 9.36553 2.40723 9.66175 2.22033 10.0019C2.04015 10.3298 1.89428 10.6719 1.7869 11.0186C1.6832 11.3538 1.59646 11.7204 1.5291 12.1084C1.46224 12.493 1.41704 12.8578 1.39463 13.1929C1.37259 13.5205 1.36145 13.8615 1.36145 14.206C1.36145 15.1016 1.63686 15.8266 2.17994 16.3613C2.71632 16.8889 3.42591 17.1565 4.2891 17.1565H12.2805C13.1435 17.1565 13.8531 16.8889 14.3896 16.3613C14.9328 15.827 15.2082 15.1017 15.2082 14.2059C15.2081 13.8602 15.1968 13.5192 15.1746 13.1925V13.1925ZM13.719 15.6329C13.3646 15.9816 12.894 16.1511 12.2804 16.1511H4.2891C3.67536 16.1511 3.20483 15.9816 2.85054 15.633C2.50296 15.291 2.33404 14.8241 2.33404 14.206C2.33404 13.8845 2.3443 13.5671 2.36481 13.2624C2.38482 12.9634 2.42572 12.635 2.48637 12.286C2.54626 11.9414 2.62249 11.618 2.71315 11.3251C2.80014 11.0444 2.91879 10.7664 3.06592 10.4986C3.20635 10.2433 3.36792 10.0243 3.5462 9.84788C3.71297 9.68282 3.92316 9.54774 4.17084 9.44643C4.3999 9.35271 4.65732 9.3014 4.93678 9.29367C4.97084 9.31239 5.03149 9.34813 5.12975 9.41436C5.32969 9.54905 5.56014 9.70272 5.81491 9.87091C6.10209 10.0602 6.47208 10.2311 6.91412 10.3787C7.36604 10.5297 7.82695 10.6064 8.28444 10.6064C8.74193 10.6064 9.20296 10.5297 9.65463 10.3788C10.097 10.231 10.4669 10.0602 10.7545 9.87065C11.0152 9.6984 11.2392 9.54918 11.4391 9.41436C11.5374 9.34826 11.598 9.31239 11.6321 9.29367C11.9117 9.3014 12.1691 9.35271 12.3983 9.44643C12.6458 9.54774 12.856 9.68295 13.0228 9.84788C13.2011 10.0242 13.3627 10.2432 13.5031 10.4987C13.6503 10.7664 13.7691 11.0445 13.856 11.325C13.9468 11.6182 14.0231 11.9415 14.0829 12.2859C14.1434 12.6355 14.1844 12.9641 14.2044 13.2625V13.2628C14.2251 13.5663 14.2355 13.8836 14.2356 14.206C14.2355 14.8242 14.0666 15.291 13.719 15.6329V15.6329Z" fill="black"/>
</g>
<defs>
<clipPath id="clip0_866_148">
<rect width="16.5967" height="17.1565" fill="white"/>
</clipPath>
</defs>
</svg>
